<svg width="52" height="46" viewBox="0 0 52 46" fill="none" xmlns="http://www.w3.org/2000/svg">
<path d="M0 0H44C48.4183 0 52 3.58172 52 8V38C52 42.4183 48.4183 46 44 46H0V0Z" fill="#009EDD"/>
<path d="M36.7075 19.7074L26.7075 29.7074C26.6146 29.8004 26.5043 29.8742 26.3829 29.9245C26.2615 29.9748 26.1314 30.0007 26 30.0007C25.8686 30.0007 25.7385 29.9748 25.6171 29.9245C25.4957 29.8742 25.3854 29.8004 25.2925 29.7074L15.2925 19.7074C15.1049 19.5198 14.9995 19.2653 14.9995 18.9999C14.9995 18.7346 15.1049 18.4801 15.2925 18.2924C15.4801 18.1048 15.7346 17.9994 16 17.9994C16.2654 17.9994 16.5199 18.1048 16.7075 18.2924L26 27.5862L35.2925 18.2924C35.3854 18.1995 35.4957 18.1258 35.6171 18.0756C35.7385 18.0253 35.8686 17.9994 36 17.9994C36.1314 17.9994 36.2615 18.0253 36.3829 18.0756C36.5043 18.1258 36.6146 18.1995 36.7075 18.2924C36.8004 18.3854 36.8741 18.4957 36.9244 18.617C36.9747 18.7384 37.0006 18.8686 37.0006 18.9999C37.0006 19.1313 36.9747 19.2614 36.9244 19.3828C36.8741 19.5042 36.8004 19.6145 36.7075 19.7074Z" fill="white"/>
</svg>
