<svg width="54" height="47" viewBox="0 0 54 47" fill="none" xmlns="http://www.w3.org/2000/svg">
<path d="M53.0413 38.3101C53.0535 42.7283 49.4816 46.3199 45.0634 46.3321L1.06355 46.4535L0.936624 0.453718L44.9365 0.332309C49.3547 0.320117 52.9463 3.89194 52.9585 8.3102L53.0413 38.3101Z" fill="#009EDD"/>
<path d="M16.3016 26.7039L26.274 16.6763C26.3666 16.5831 26.4767 16.509 26.5979 16.4584C26.7192 16.4077 26.8492 16.3815 26.9807 16.3811C27.1121 16.3807 27.2423 16.4063 27.3638 16.4563C27.4853 16.5063 27.5958 16.5797 27.689 16.6724L37.7165 26.6448C37.9047 26.8319 38.0108 27.0861 38.0115 27.3515C38.0123 27.6169 37.9075 27.8716 37.7204 28.0598C37.5333 28.248 37.2791 28.3541 37.0137 28.3548C36.7484 28.3555 36.4936 28.2508 36.3054 28.0637L26.9873 18.7956L17.7205 28.115C17.6278 28.2082 17.5177 28.2822 17.3965 28.3328C17.2752 28.3834 17.1452 28.4096 17.0138 28.41C16.8824 28.4104 16.7522 28.3848 16.6307 28.3349C16.5092 28.2849 16.3987 28.2115 16.3055 28.1189C16.2123 28.0262 16.1383 27.9161 16.0877 27.7949C16.0371 27.6736 16.0109 27.5436 16.0105 27.4122C16.0101 27.2808 16.0357 27.1506 16.0856 27.0291C16.1355 26.9076 16.2089 26.7971 16.3016 26.7039Z" fill="white"/>
</svg>
